HIERARCHY
ROOT Hips
{
  OFFSET 5.70366 102.999 -1.77653
  CHANNELS 6 Xposition Yposition Zposition Zrotation Xrotation Yrotation
  JOINT RightUpLeg
  {
    OFFSET -8.9458 -8.66707 0.101652
    CHANNELS 3 Zrotation Xrotation Yrotation
    JOINT RightLeg
    {
      OFFSET 0 -44.4227 1.3727
      CHANNELS 3 Zrotation Xrotation Yrotation
      JOINT RightFoot
      {
        OFFSET 0.253549 -42.0924 -1.46059
        CHANNELS 3 Zrotation Xrotation Yrotation
        JOINT RightToes
        {
          OFFSET 0.04 -4.41509 8.4991
          CHANNELS 3 Zrotation Xrotation Yrotation
          End Site
          {
            OFFSET -0.08 -0.137448 9.77979
          }
        }
      }
    }
  }
  JOINT Spine
  {
    OFFSET 0 11.8905 0
    CHANNELS 3 Zrotation Xrotation Yrotation
    JOINT Spine1
    {
      OFFSET 0 25.6574 0.127663
      CHANNELS 3 Zrotation Xrotation Yrotation
      JOINT HEad
      {
        OFFSET 0 8.73416 0.011341
        CHANNELS 3 Zrotation Xrotation Yrotation
        End Site
        {
          OFFSET -0.29 12.7742 2.51395
        }
      }
      JOINT LeftShoulder1
      {
        OFFSET 8.99 -0.362252 -0.22
        CHANNELS 3 Zrotation Xrotation Yrotation
        JOINT LeftArm
        {
          OFFSET 10.2827 -0.00337999 0.322123
          CHANNELS 3 Zrotation Xrotation Yrotation
          JOINT LeftForeArm
          {
            OFFSET 26.2597 0.099144 -1.42434
            CHANNELS 3 Zrotation Xrotation Yrotation
            JOINT LeftHand
            {
              OFFSET 22.0902 0.085362 1.02216
              CHANNELS 3 Zrotation Xrotation Yrotation
              End Site
              {
                OFFSET 13.419 -0.6 1.50291
              }
            }
          }
        }
      }
      JOINT RightShoulder
      {
        OFFSET -8.99 -0.362252 -0.22
        CHANNELS 3 Zrotation Xrotation Yrotation
        JOINT RightArm
        {
          OFFSET -10.2827 -0.00338 0.322123
          CHANNELS 3 Zrotation Xrotation Yrotation
          JOINT RightForeArm
          {
            OFFSET -26.364 0.099144 -1.42434
            CHANNELS 3 Zrotation Xrotation Yrotation
            JOINT RightHand
            {
              OFFSET -22.0324 0.085362 1.02216
              CHANNELS 3 Zrotation Xrotation Yrotation
              End Site
              {
                OFFSET -13.3284 -0.6 1.50291
              }
            }
          }
        }
      }
    }
  }
  JOINT LeftUpLeg
  {
    OFFSET 8.9458 -8.66707 0.101652
    CHANNELS 3 Zrotation Xrotation Yrotation
    JOINT LeftLeg
    {
      OFFSET 0 -44.4227 1.3727
      CHANNELS 3 Zrotation Xrotation Yrotation
      JOINT LeftFoot
      {
        OFFSET -0.253549 -42.0924 -1.46059
        CHANNELS 3 Zrotation Xrotation Yrotation
        JOINT LeftToes
        {
          OFFSET -0.04 -4.41509 8.4991
          CHANNELS 3 Zrotation Xrotation Yrotation
          End Site
          {
            OFFSET 0.08 -0.047448 9.77979
          }
        }
      }
    }
  }
}
MOTION
Frames:	17
Frame Time:	0.0416667
-181.07 104.253 1.31174 -0.429445 -0.0532748 94.6909 -0.623538 -3.24871 -1.62114 -2.20072 12.935 2.35836 -5.40448 -6.30406 -0.101584 0.0462048 0.00053089 0.662642 1.0569 -0.693226 0.0908673 -3.54719 2.06096 0.713231 3.73494 12.0547 -0.346359 -28.8413 -1.96298 9.30295 -50.6667 -24.6138 -10.8535 -10.5736 58.8292 -0.896302 1.38069 9.83942 -6.87848 39.0538 0.950395 -2.08236 37.688 -13.8719 7.36015 4.07434 42.2734 12.2797 1.43781 10.0364 1.84671 -1.91188 -2.06392 1.71156 2.27856 10.7111 18.4329 0.218402 -4.68886 0.00684838 -1.34031e-009 8.75223e-006 -1.4639e-008 
-181.07 104.241 1.30293 -0.487644 -0.0978474 94.6977 -0.5805 -3.34976 -1.59091 -2.20963 13.0105 2.32516 -5.3834 -6.33075 -0.101589 0.0462048 0.00053089 0.662642 1.06768 -0.644365 0.125194 -3.46423 2.01257 0.73722 3.77723 12.0113 -0.328817 -28.8221 -1.95532 9.28419 -50.6724 -24.6135 -10.8461 -10.5907 58.9064 -0.891403 1.45057 9.8321 -6.8795 38.9907 0.934415 -2.11504 37.7501 -13.9902 7.41806 4.30343 42.4241 11.9689 1.00763 10.0156 2.19559 -1.91733 -2.04608 1.70325 2.29125 10.539 18.5701 1.13516 -4.38156 -0.0219833 -1.34031e-009 8.75223e-006 -1.4639e-008 
-181.072 104.234 1.29174 -0.64263 -0.11392 94.7292 -0.585298 -3.53969 -1.56791 -2.20509 13.0592 2.27571 -5.36867 -6.35438 -0.101594 0.0462048 0.00053089 0.662642 0.975978 -0.642497 0.161094 -3.34078 1.97806 0.755646 3.84604 11.9404 -0.240115 -28.805 -1.95611 9.28911 -50.6658 -24.6177 -10.8966 -10.3363 59.0147 -1.27293 1.11108 9.86821 -6.55529 38.9455 0.95271 -2.07313 37.729 -13.8923 7.38916 4.31374 42.2687 12.0008 0.800976 10.0063 2.45775 -1.93593 -2.1893 1.66873 2.29152 10.4807 18.6201 1.5456 -4.24587 -0.0357531 -1.34031e-009 8.75223e-006 -1.4639e-008 
-181.06 104.231 1.27112 -0.750067 -0.128302 94.7713 -0.5988 -3.64391 -1.56618 -2.18936 13.0583 2.22973 -5.39353 -6.36832 -0.102216 0.0462048 0.00053089 0.662642 0.956099 -0.507048 0.17284 -3.32593 1.80149 0.760502 3.824 12.021 -0.132882 -28.8058 -1.93913 9.24081 -50.5341 -24.6698 -10.8071 -9.96594 59.0664 -1.81056 0.606053 9.91947 -6.32053 38.947 0.986853 -1.99813 37.6815 -13.8737 7.32186 4.1468 42.2549 12.1988 0.986721 10.0215 2.61147 -1.93813 -2.34369 1.64436 2.29177 10.5625 18.5848 1.36543 -4.35596 -0.0377523 -1.34031e-009 8.75223e-006 -1.4639e-008 
-181.028 104.23 1.23164 -0.767606 -0.164506 94.8703 -0.593582 -3.60707 -1.5908 -2.16614 13.0094 2.15626 -5.37899 -6.38055 -0.102799 0.0462048 0.00053089 0.662642 0.958342 -0.318673 0.149395 -3.23088 1.67745 0.714992 3.65788 12.0969 -0.145919 -28.8976 -1.93168 9.20568 -50.3665 -24.7679 -10.7149 -9.97789 59.0821 -1.73996 0.640126 9.91687 -6.6336 38.8295 1.00759 -1.94769 37.7872 -13.8865 7.42771 4.10831 42.2933 12.2291 1.13082 10.0301 2.5409 -1.91496 -2.36956 1.65968 2.27675 10.5975 18.4897 1.42191 -4.40378 -0.0395309 -1.34031e-009 8.75223e-006 -1.4639e-008 
-180.987 104.23 1.18406 -0.832571 -0.164695 94.9495 -0.635362 -3.60024 -1.62625 -2.15084 12.9279 2.11559 -5.32376 -6.37327 -0.103278 0.0462048 0.00053089 0.662642 0.892828 -0.391257 0.150005 -3.11954 1.90984 0.699401 3.558 11.9193 -0.347954 -28.9454 -1.9464 9.24007 -50.3863 -24.7957 -10.9054 -10.4078 58.973 -1.03542 1.11235 9.86755 -7.0892 38.7461 1.00505 -1.94988 37.86 -13.5444 7.68643 4.13027 41.862 12.3417 1.11685 10.0224 2.21384 -1.90992 -2.37989 1.70046 2.20597 10.5244 18.3718 1.55561 -4.36794 -0.0409092 -1.34031e-009 8.75223e-006 -1.4639e-008 
-180.94 104.231 1.13399 -0.94265 -0.161829 94.9216 -0.674704 -3.66411 -1.6355 -2.1585 12.8719 2.1477 -5.32746 -6.33993 -0.103725 0.0462048 0.00053089 0.662642 0.942671 -0.427869 0.210903 -3.27153 2.02336 0.790576 3.67274 11.8014 -0.541736 -28.766 -1.91574 9.18046 -50.429 -24.7273 -10.9737 -10.6073 58.734 -0.777018 1.29401 9.848 -7.12631 38.9529 0.977089 -2.0198 37.6946 -13.3391 7.85316 4.1919 41.6396 12.3663 0.990702 10.0169 2.32726 -1.92268 -2.39496 1.72593 2.14468 10.3824 18.3708 1.53704 -4.36676 -0.0419052 -1.34031e-009 8.75223e-006 -1.4639e-008 
-180.896 104.231 1.07119 -1.05344 -0.208975 94.9771 -0.6685 -3.7347 -1.63922 -2.159 12.8408 2.09682 -5.31459 -6.32497 -0.104223 0.0462048 0.00053089 0.662642 0.989575 -0.161725 0.219679 -3.32996 1.67285 0.805273 3.7326 11.9498 -0.474919 -28.6255 -1.8665 9.0615 -50.2684 -24.7427 -10.6903 -10.3196 58.6927 -1.27024 1.06356 9.87299 -6.85667 39.1131 0.963922 -2.05499 37.5664 -13.4174 7.8571 4.26448 41.8081 12.2562 0.884401 10.0128 2.6793 -1.94098 -2.44727 1.68362 2.16583 10.2798 18.4006 1.61349 -4.3714 -0.0425294 -1.34031e-009 8.75223e-006 -1.4639e-008 
-180.869 104.23 0.992898 -1.26174 -0.242613 95.185 -0.719189 -3.92045 -1.67706 -2.1221 12.8469 1.93226 -5.22575 -6.34119 -0.104848 0.0462048 0.00053089 0.662642 0.829043 -0.0366999 0.12627 -3.05911 1.43105 0.661862 3.57811 11.9705 -0.276111 -28.7665 -1.89651 9.12569 -50.0751 -24.8799 -10.6049 -10.1466 58.8831 -1.45548 1.00104 9.87958 -6.75439 38.9507 0.997968 -1.97381 37.6634 -13.0892 7.87178 4.14412 41.4924 12.5076 0.95403 10.015 2.40876 -1.9989 -2.68419 1.57176 2.20645 10.2996 18.3221 1.69991 -4.37405 -0.0427934 -1.34031e-009 8.75223e-006 -1.4639e-008 
-180.839 104.228 0.897061 -1.513 -0.233046 95.3405 -0.840443 -4.18295 -1.73832 -2.07899 12.9137 1.83271 -5.18224 -6.36028 -0.105669 0.0462048 0.00053089 0.662642 0.727726 -0.127791 0.0531752 -2.95452 1.49828 0.57365 3.52359 11.7802 -0.266833 -28.9015 -1.95935 9.28345 -49.9522 -24.9306 -10.7881 -10.3677 58.8462 -1.08101 1.22359 9.85601 -6.8939 38.8241 1.02274 -1.91411 37.7529 -12.6705 7.99673 3.99325 41.0924 12.8274 1.02773 10.0182 2.1153 -2.10081 -2.98284 1.44408 2.22283 10.3851 18.2564 1.66081 -4.41183 -0.0427111 -1.34031e-009 8.75223e-006 -1.4639e-008 
-180.78 104.222 0.778236 -1.64682 -0.252973 95.4836 -0.914629 -4.26322 -1.79007 -2.06601 12.903 1.74464 -5.12635 -6.39205 -0.106761 0.0462048 0.00053089 0.662642 0.80934 0.01174 0.0555673 -3.09798 1.37772 0.600412 3.69796 11.7504 -0.408785 -28.8027 -1.93652 9.23387 -49.8221 -24.8445 -10.7396 -10.4094 58.5805 -1.14137 1.16134 9.86274 -6.80755 38.939 0.990325 -1.99015 37.6741 -12.7819 8.08388 4.0532 41.2546 12.7211 1.01739 10.0174 2.47461 -2.18628 -3.12716 1.34012 2.25697 10.4543 18.2026 1.70685 -4.46734 -0.0422935 -1.34031e-009 8.75223e-006 -1.4639e-008 
-180.698 104.214 0.650127 -1.72852 -0.331909 95.7632 -0.911533 -4.19258 -1.80637 -2.06384 12.7569 1.48819 -4.97049 -6.41183 -0.108193 0.0462048 0.00053089 0.662642 0.845207 0.223622 0.0394257 -3.0892 1.1658 0.576262 3.77998 11.8376 -0.458916 -28.6899 -1.87583 9.07849 -49.7908 -24.7932 -10.6356 -10.2374 58.5598 -1.47962 0.910039 9.88893 -6.50449 39.0705 0.973476 -2.0324 37.4888 -12.6527 7.99472 4.07222 41.0309 12.7664 1.09473 10.018 2.60045 -2.19389 -3.21365 1.30244 2.26869 10.5144 17.9819 1.84204 -4.55795 -0.0415534 -1.34031e-009 8.75223e-006 -1.4639e-008 
-180.595 104.207 0.52975 -1.82515 -0.415588 96.0777 -0.899315 -4.14733 -1.80689 -2.05079 12.6693 1.16014 -4.8929 -6.41654 -0.110024 0.0462048 0.00053089 0.662642 0.845767 0.237415 -0.0289567 -3.01261 1.18352 0.490141 3.7079 11.8829 -0.438197 -28.6887 -1.88379 9.10129 -49.8564 -24.7552 -10.7952 -10.3013 58.6532 -1.40644 0.995771 9.88009 -6.51843 39.146 1.02212 -1.92892 37.2823 -11.9644 7.80755 3.9186 40.2369 13.2078 1.13494 10.0209 2.30728 -2.15753 -3.3216 1.32099 2.22464 10.602 17.6667 1.90429 -4.70008 -0.0405037 -1.34031e-009 8.75223e-006 -1.4639e-008 
-180.466 104.19 0.413033 -1.88968 -0.443889 96.4105 -0.941679 -4.0908 -1.84122 -2.04504 12.6818 0.867476 -4.87246 -6.52651 -0.115681 0.0462048 0.00053089 0.662642 0.829926 0.228533 -0.0538605 -2.97861 1.2546 0.462815 3.71132 12.0412 -0.498313 -28.6751 -1.91394 9.18922 -49.9203 -24.5832 -10.9806 -10.3236 58.3491 -1.51437 1.0827 9.8711 -6.70912 39.1346 1.05713 -1.85179 37.2374 -11.6809 7.69005 3.86221 39.9709 13.3718 0.990996 10.0193 2.47424 -2.20778 -3.38687 1.25742 2.2376 10.7194 17.4071 1.9591 -4.82992 -0.0391524 -1.34031e-009 8.75223e-006 -1.4639e-008 
-180.314 104.169 0.286869 -1.98142 -0.453121 96.8008 -1.00992 -4.01411 -1.8862 -2.05559 12.636 0.551614 -4.73829 -6.66837 -0.123858 0.0462048 0.00053089 0.662642 0.741176 0.145073 0.0396069 -2.85557 1.35344 0.542702 3.73556 12.2788 -0.567776 -28.6326 -1.8895 9.12599 -50.1181 -24.3827 -11.1484 -10.0568 57.8372 -2.00037 0.866755 9.89352 -6.65984 38.9966 1.03084 -1.90354 37.3548 -11.6451 7.6736 3.94921 39.9315 13.2842 0.823478 10.0136 2.82264 -2.33029 -3.44229 1.10246 2.32863 10.7915 17.169 2.03491 -4.93344 -0.0375104 -1.34031e-009 8.75223e-006 -1.4639e-008 
-180.142 104.163 0.141908 -2.11391 -0.514822 97.152 -1.04928 -3.95425 -1.942 -2.02917 12.5457 0.242407 -4.63494 -6.67646 -0.125154 0.0462048 0.00053089 0.662642 0.776241 -0.0147715 0.131934 -2.81388 1.5048 0.629588 3.62236 12.4258 -0.430834 -28.6722 -1.89463 9.13464 -50.341 -24.3337 -11.4429 -10.0274 57.6571 -1.98571 0.889083 9.8913 -6.76174 38.9155 1.01646 -1.93172 37.3571 -10.804 7.64354 3.89817 39.1085 13.6384 0.752072 10.0055 2.61814 -2.37315 -3.49715 1.02882 2.35561 10.7902 16.8859 2.0706 -5.03995 -0.0355913 -1.34031e-009 8.75223e-006 -1.4639e-008 
-179.974 104.157 -0.0214564 -2.19992 -0.567885 97.5619 -1.13542 -3.82887 -2.081 -1.9432 12.4608 -0.0538302 -4.55687 -6.7515 -0.129312 0.0462048 0.00053089 0.662642 0.926313 0.102586 0.088374 -2.95055 1.40195 0.604362 3.46028 12.5066 -0.12237 -28.7338 -1.96196 9.31679 -50.2811 -24.2681 -11.5634 -10.2477 57.5783 -1.75104 1.1429 9.86419 -7.21983 38.9379 1.04504 -1.86982 37.3383 -9.99312 7.63672 3.67633 38.4083 14.1536 0.821775 10.0059 2.34178 -2.39976 -3.52497 1.00285 2.31964 10.8254 16.5252 2.16734 -5.14635 -0.0334066 -1.34031e-009 8.75223e-006 -1.4639e-008 
